Coordinates
version=1
nRows=13
nColumns=63
inDegrees=yes

Units are S.I. units (second, meters, Newtons, ...)
If the header above contains a line with 'inDegrees', this indicates whether rotational values are in degrees (yes) or radians (no).

endheader
time	pelvis_tilt	pelvis_list	pelvis_rotation	pelvis_tx	pelvis_ty	pelvis_tz	hip_flexion_r	hip_adduction_r	hip_rotation_r	knee_angle_r	knee_angle_r_beta	ankle_angle_r	subtalar_angle_r	mtp_angle_r	hip_flexion_l	hip_adduction_l	hip_rotation_l	knee_angle_l	knee_angle_l_beta	ankle_angle_l	subtalar_angle_l	mtp_angle_l	L5_S1_Flex_Ext	L5_S1_Lat_Bending	L5_S1_axial_rotation	L4_L5_Flex_Ext	L4_L5_Lat_Bending	L4_L5_axial_rotation	L3_L4_Flex_Ext	L3_L4_Lat_Bending	L3_L4_axial_rotation	L2_L3_Flex_Ext	L2_L3_Lat_Bending	L2_L3_axial_rotation	L1_L2_Flex_Ext	L1_L2_Lat_Bending	L1_L2_axial_rotation	L1_T12_Flex_Ext	L1_T12_Lat_Bending	L1_T12_axial_rotation	Abs_r3	Abs_r2	Abs_r1	Abs_t1	Abs_t2	neck_flexion	neck_bending	neck_rotation	arm_flex_r	arm_add_r	arm_rot_r	elbow_flex_r	pro_sup_r	wrist_flex_r	wrist_dev_r	arm_flex_l	arm_add_l	arm_rot_l	elbow_flex_l	pro_sup_l	wrist_flex_l	wrist_dev_l
1.050847	-3.910613	-3.957855	97.161305	0.070987	0.457148	0.842075	4.729162	-0.338235	-10.491401	6.813106	0.118911	29.267812	15.976555	0.000000	7.642507	1.152293	-1.323450	11.306704	0.197339	27.398064	1.749580	0.000000	0.225051	-0.212798	0.276677	0.417942	-0.283022	0.293969	0.369736	-0.517398	0.293969	0.257210	-0.517398	0.242092	0.208982	-0.433938	0.224800	0.128594	-0.329625	0.207507	1.607514	-2.407218	1.538792	0.000000	0.000000	27.364415	-9.976522	8.126696	8.846394	-11.269739	49.707193	68.808746	2.440869	-32.064238	28.551340	19.459629	-5.615066	74.665350	44.045399	85.681054	15.815309	7.453283
1.067797	-3.946447	-3.918165	97.091144	0.071044	0.457176	0.842313	4.698285	-0.365050	-10.303905	6.777639	0.118292	29.263096	15.939197	0.000000	7.586238	1.206755	-1.157089	11.272165	0.196736	27.368671	1.400111	0.000000	0.221457	-0.217814	0.318606	0.411267	-0.289692	0.338519	0.363831	-0.529593	0.338519	0.253103	-0.529593	0.278781	0.205645	-0.444166	0.258868	0.126540	-0.337394	0.238955	1.581842	-2.463953	1.771993	0.000000	0.000000	27.335878	-10.113184	7.813507	8.919635	-11.339351	49.823377	68.695196	2.680464	-31.396925	28.366567	19.681230	-5.550943	74.799204	44.124069	86.336287	15.874307	8.118155
1.084746	-3.974260	-3.894870	97.060848	0.071061	0.457183	0.842542	4.681914	-0.391146	-10.203202	6.755052	0.117898	29.262562	15.939089	0.000000	7.559970	1.249437	-1.042380	11.253078	0.196403	27.362501	1.175269	0.000000	0.218693	-0.221496	0.345543	0.406134	-0.294589	0.367139	0.359290	-0.538545	0.367139	0.249944	-0.538545	0.302350	0.203078	-0.451674	0.280754	0.124961	-0.343097	0.259157	1.562100	-2.505604	1.921806	0.000000	0.000000	27.315213	-10.195649	7.598495	9.000669	-11.399476	49.969386	68.607901	2.876166	-30.890059	28.165009	19.815978	-5.536497	74.706105	44.251080	86.888290	16.047398	8.710702
1.101695	-3.994857	-3.889295	97.055188	0.071044	0.457161	0.842780	4.692401	-0.417585	-10.157117	6.762427	0.118027	29.269443	15.948366	0.000000	7.564805	1.288522	-0.923979	11.248079	0.196316	27.360159	0.969983	0.000000	0.216968	-0.223768	0.358970	0.402932	-0.297611	0.381406	0.356458	-0.544069	0.381406	0.247973	-0.544069	0.314099	0.201477	-0.456307	0.291663	0.123976	-0.346616	0.269228	1.549784	-2.531304	1.996485	0.000000	0.000000	27.302604	-10.234912	7.485226	9.095405	-11.456061	50.150755	68.530532	3.033404	-30.462035	27.998113	19.870326	-5.570933	74.453842	44.423662	87.207031	16.225315	9.247475
1.118644	-4.005642	-3.901520	97.086043	0.070986	0.457092	0.843054	4.733268	-0.445186	-10.206223	6.806390	0.118794	29.293370	16.004136	0.000000	7.608716	1.320519	-0.805303	11.264659	0.196605	27.369217	0.803102	0.000000	0.216258	-0.224618	0.361170	0.401612	-0.298742	0.383743	0.355290	-0.546136	0.383743	0.247161	-0.546136	0.316024	0.200817	-0.458041	0.293451	0.123570	-0.347933	0.270878	1.544707	-2.540923	2.008719	0.000000	0.000000	27.299775	-10.266044	7.434741	9.166152	-11.494400	50.280782	68.486670	3.125501	-30.266005	27.863095	19.903431	-5.651305	74.240750	44.620720	87.240469	16.272686	9.614665
1.135593	-4.006518	-3.930903	97.146057	0.070907	0.456962	0.843376	4.811014	-0.474084	-10.337607	6.898138	0.120395	29.336960	16.098924	0.000000	7.693790	1.341459	-0.710976	11.308974	0.197379	27.398078	0.702807	0.000000	0.216677	-0.224282	0.354546	0.402390	-0.298296	0.376705	0.355978	-0.545320	0.376705	0.247640	-0.545320	0.310228	0.201206	-0.457357	0.288068	0.123809	-0.347413	0.265909	1.547700	-2.537128	1.971877	0.000000	0.000000	27.304511	-10.294293	7.433832	9.206417	-11.512354	50.337673	68.477908	3.140147	-30.311848	27.769644	19.928647	-5.765185	74.091685	44.834228	87.167140	16.164940	9.789867
1.152542	-3.996030	-3.972871	97.241343	0.070810	0.456765	0.843753	4.924919	-0.502183	-10.548728	7.046129	0.122978	29.403531	16.221020	0.000000	7.816928	1.345742	-0.663594	11.383815	0.198685	27.456356	0.714988	0.000000	0.217708	-0.223016	0.342343	0.404306	-0.296612	0.363739	0.357673	-0.542242	0.363739	0.248819	-0.542242	0.299550	0.202164	-0.454775	0.278153	0.124399	-0.345452	0.256757	1.555070	-2.522804	1.904008	0.000000	0.000000	27.316391	-10.337255	7.444721	9.207712	-11.518021	50.300664	68.511340	3.054991	-30.580262	27.710200	19.992238	-5.899690	74.105594	45.049592	87.139312	15.893019	9.742882
1.169492	-3.969149	-4.019918	97.375829	0.070697	0.456514	0.844162	5.060220	-0.520149	-10.812197	7.235884	0.126290	29.483172	16.338416	0.000000	7.966260	1.329196	-0.633442	11.485343	0.200457	27.530482	0.807787	0.000000	0.218735	-0.220022	0.319900	0.406212	-0.292630	0.339894	0.359359	-0.534962	0.339894	0.249992	-0.534962	0.279912	0.203117	-0.448669	0.259919	0.124985	-0.340815	0.239925	1.562399	-2.488936	1.779187	0.000000	0.000000	27.338406	-10.378719	7.520234	9.204662	-11.522782	50.241702	68.582381	2.799566	-31.050927	27.635150	20.051759	-6.045584	74.161261	45.259544	86.974031	15.589185	9.666279
1.186441	-3.930041	-4.077861	97.560423	0.070548	0.456204	0.844581	5.229351	-0.539317	-11.178751	7.484432	0.130628	29.593824	16.496142	0.000000	8.146296	1.307015	-0.536475	11.615996	0.202737	27.603514	0.885960	0.000000	0.221146	-0.216732	0.292687	0.410691	-0.288254	0.310980	0.363321	-0.526963	0.310980	0.252748	-0.526963	0.256102	0.205356	-0.441960	0.237809	0.126363	-0.335718	0.219516	1.579625	-2.451718	1.627840	0.000000	0.000000	27.364584	-10.446746	7.554611	9.173874	-11.538670	50.144261	68.696054	2.531838	-31.628646	27.545988	20.146339	-6.178210	74.299321	45.466219	87.114507	15.309894	9.534151
1.203390	-3.883227	-4.129226	97.781290	0.070396	0.455880	0.845001	5.413603	-0.558550	-11.608054	7.784863	0.135871	29.729505	16.663630	0.000000	8.334231	1.271930	-0.437297	11.774426	0.205503	27.680235	1.031215	0.000000	0.222217	-0.213130	0.264649	0.412680	-0.283463	0.281190	0.365081	-0.518205	0.281190	0.253972	-0.518205	0.231568	0.206351	-0.434615	0.215027	0.126975	-0.330139	0.198487	1.587275	-2.410972	1.471899	0.000000	0.000000	27.390142	-10.524847	7.571487	9.133444	-11.574397	50.026201	68.804862	2.447782	-32.061909	27.566599	20.332253	-6.305140	74.658771	45.662320	87.265767	15.027834	9.391702
1.220339	-3.825418	-4.176028	98.054623	0.070206	0.455561	0.845376	5.604622	-0.574387	-12.089647	8.120020	0.141721	29.889733	16.809314	0.000000	8.527868	1.226866	-0.294052	11.955496	0.208663	27.746381	1.209591	0.000000	0.223227	-0.208557	0.226913	0.414555	-0.277381	0.241095	0.366740	-0.507086	0.241095	0.255126	-0.507086	0.198548	0.207289	-0.425290	0.184366	0.127552	-0.323055	0.170184	1.594489	-2.359240	1.262019	0.000000	0.000000	27.412092	-10.597036	7.615410	9.111394	-11.633935	49.973733	68.882466	2.770195	-32.191320	27.701583	20.531304	-6.410788	75.004507	45.840538	87.473416	14.926816	9.330110
1.237288	-3.753721	-4.212873	98.381179	0.069963	0.455274	0.845692	5.794862	-0.584742	-12.634782	8.482270	0.148044	30.069394	16.945372	0.000000	8.719492	1.171959	-0.080993	12.154669	0.212139	27.796879	1.383857	0.000000	0.223785	-0.201728	0.172584	0.415591	-0.268299	0.183370	0.367656	-0.490482	0.183370	0.255764	-0.490482	0.151011	0.207807	-0.411364	0.140224	0.127871	-0.312477	0.129438	1.598473	-2.281990	0.959858	0.000000	0.000000	27.431871	-10.653335	7.763436	9.135114	-11.706534	50.050865	68.944832	3.255570	-32.229031	27.828882	20.679677	-6.494966	75.148872	46.013952	87.670906	15.069988	9.481830
1.254237	-3.684804	-4.233027	98.747808	0.069686	0.455053	0.845886	5.962667	-0.599215	-13.192725	8.851490	0.154488	30.269872	17.029834	0.000000	8.882171	1.117396	0.153998	12.346335	0.215484	27.825671	1.609946	0.000000	0.223618	-0.194528	0.101120	0.415281	-0.258722	0.107440	0.367382	-0.472975	0.107440	0.255573	-0.472975	0.088480	0.207652	-0.396681	0.082160	0.127775	-0.301324	0.075840	1.597282	-2.200538	0.562401	0.000000	0.000000	27.438699	-10.687429	8.002236	9.189359	-11.765695	50.229402	68.971849	3.742412	-32.174680	27.931327	20.702135	-6.572945	74.933407	46.189280	87.768676	15.431868	9.817362
